HIERARCHY
ROOT root     
{
	OFFSET 0.0000 0.0000 0.0000
	CHANNELS 6 Xposition Yposition Zposition Zrotation Yrotation Xrotation
	JOINT pelvis   
	{
		OFFSET 0.0000 0.0000 0.0000
		CHANNELS 3 Zrotation Yrotation Xrotation
		JOINT thorax   
		{
			OFFSET 0.0000 23.0750 -5.0000
			CHANNELS 3 Zrotation Yrotation Xrotation
			JOINT rclavicle
			{
				OFFSET 0.0000 28.0009 0.0000
				CHANNELS 3 Zrotation Yrotation Xrotation
				JOINT rhumerus 
				{
					OFFSET -18.5725 5.5939 0.0000
					CHANNELS 3 Zrotation Yrotation Xrotation
					JOINT rradius  
					{
						OFFSET -24.8459 0.0000 0.0000
						CHANNELS 3 Zrotation Yrotation Xrotation
						JOINT rhand    
						{
							OFFSET -24.5477 0.0000 0.0000
							CHANNELS 3 Zrotation Yrotation Xrotation
							End Site
							{
								OFFSET -8.1826 0.0000 0.0000
							}
						}
					}
				}
			}
			JOINT lclavicle
			{
				OFFSET 0.0000 28.0009 0.0000
				CHANNELS 3 Zrotation Yrotation Xrotation
				JOINT lhumerus 
				{
					OFFSET 18.5725 5.5939 0.0000
					CHANNELS 3 Zrotation Yrotation Xrotation
					JOINT lradius  
					{
						OFFSET 24.8459 0.0000 0.0000
						CHANNELS 3 Zrotation Yrotation Xrotation
						JOINT lhand    
						{
							OFFSET 24.5477 0.0000 0.0000
							CHANNELS 3 Zrotation Yrotation Xrotation
							End Site
							{
								OFFSET 8.1826 0.0000 0.0000
							}
						}
					}
				}
			}
			JOINT head     
			{
				OFFSET 0.0000 35.2030 0.0000
				CHANNELS 3 Zrotation Yrotation Xrotation
				End Site
				{
					OFFSET 0.0000 11.7343 0.0000
				}
			}
		}
		JOINT rfemur   
		{
			OFFSET -8.2817 0.0000 0.0000
			CHANNELS 3 Zrotation Yrotation Xrotation
			JOINT rtibia   
			{
				OFFSET 0.0000 -43.3627 0.0000
				CHANNELS 3 Zrotation Yrotation Xrotation
				JOINT rfoot    
				{
					OFFSET 0.0000 -38.2947 0.0000
					CHANNELS 3 Zrotation Yrotation Xrotation
					JOINT rtoes    
					{
						OFFSET 0.0000 0.0000 16.6054
						CHANNELS 3 Zrotation Yrotation Xrotation
						End Site
						{
							OFFSET 0.0000 0.0000 5.5351
						}
					}
				}
			}
		}
		JOINT lfemur   
		{
			OFFSET 8.2817 0.0000 0.0000
			CHANNELS 3 Zrotation Yrotation Xrotation
			JOINT ltibia   
			{
				OFFSET 0.0000 -43.3627 0.0000
				CHANNELS 3 Zrotation Yrotation Xrotation
				JOINT lfoot    
				{
					OFFSET 0.0000 -38.2947 0.0000
					CHANNELS 3 Zrotation Yrotation Xrotation
					JOINT ltoes    
					{
						OFFSET 0.0000 0.0000 16.6054
						CHANNELS 3 Zrotation Yrotation Xrotation
						End Site
						{
							OFFSET 0.0000 0.0000 5.5351
						}
					}
				}
			}
		}
	}
}
MOTION
Frames: 23
Frame Time: .0333333
164.06 86.922 18.299 122.093 -82.172 -91.7026 0 -0 0 -9.89883 1.55911 -4.34481 2.90883 4.75514 -6.08276e-06 31.535 62.8262 -24.6804 -0 32.8297 -0 -5.67678 6.19991 -0.307691 -2.64157 4.96937 -1.79906e-06 -11.8027 -63.2945 -14.1993 0 -29.3788 0 7.7589 -4.57074 -0.310102 -9.67 -1.71561 -23.2934 -7.65128 -1.40251 -4.82743 -0 -0 10.6649 1.64232e-06 -0.5837 20.8643 -0.207903 4.21468e-06 -69.7959 -10.4344 4.98565 -52.6808 -0 -0 47.6196 9.59339e-06 11.7586 4.6022 0.956792 4.18122e-06 -38.0026 
162.82 87.233 18.265 122.11 -82.2922 -91.4112 0 -0 0 -10.1663 1.74063 -4.40233 2.12153 4.62297 -7.37306e-07 30.1477 63.4038 -26.938 -2.04029e-07 32.949 -6.8991e-07 -5.87893 6.16074 -0.316595 -2.32632 5.73532 3.68748e-06 -9.65402 -65.122 -17.391 0 -29.6264 0 7.95193 -4.42982 -0.308004 -8.86921 -1.19828 -23.803 -7.77124 -1.0772 -4.93607 -0 -0 11.5522 -3.02365e-06 -1.27065 21.9208 -0.4744 3.5316e-06 -68.6533 -10.7203 4.89505 -52.5348 -0 -0 44.3946 -1.7564e-06 10.9197 4.82998 0.930601 4.75097e-07 -39.0686 
161.59 87.477 18.223 121.903 -82.4494 -90.9196 0 -0 0 -10.4196 1.87238 -4.42207 1.35622 4.47385 1.19032e-06 28.6071 63.9427 -29.272 -0 33.0377 -0 -6.0561 6.13307 -0.324697 -2.02305 6.51033 -1.84514e-06 -7.02193 -66.9476 -20.9377 0 -29.7772 0 8.09266 -4.32295 -0.305906 -7.98363 -0.683972 -24.3348 -7.84674 -0.604103 -5.07152 -0 -0 12.7137 -3.90894e-06 -2.49702 22.4502 -0.954096 8.4101e-06 -67.2958 -10.9395 4.7565 -52.3163 -0 -0 41.1571 2.9437e-06 10.0625 5.1161 0.906586 -2.44962e-06 -39.9582 
160.33 87.646 18.169 121.526 -82.6499 -90.3093 0 -0 0 -10.6234 1.96358 -4.38547 0.612698 4.30536 -1.87221e-07 26.8807 64.4549 -31.6903 -0 33.0736 -0 -6.22578 6.12786 -0.333597 -1.76455 7.29568 3.04392e-06 -3.69694 -68.7587 -25.0095 0 -29.815 0 8.15448 -4.23619 -0.3021 -7.033 -0.17838 -24.8865 -7.85089 0.000600845 -5.19444 -0 -0 14.1249 2.5684e-06 -4.17403 22.5081 -1.60029 1.64042e-05 -65.8438 -11.0719 4.59016 -52.0203 -0 -0 37.9937 -2.92589e-06 9.2265 5.46122 0.885689 2.86021e-07 -40.6174 
159.07 87.731 18.113 120.988 -82.8705 -89.5937 0 -0 0 -10.8014 2.02377 -4.29085 -0.0996991 4.11325 -4.25478e-08 24.9324 64.9479 -34.204 -0 33.0293 -0 -6.40643 6.16597 -0.345392 -1.56019 8.08606 7.47877e-07 0.556211 -70.5185 -29.8301 0 -29.7287 0 8.11234 -4.15634 -0.294906 -6.02103 0.311559 -25.4502 -7.81788 0.612206 -5.33023 -0 -0 15.8655 -2.59738e-05 -6.04954 22.0945 -2.28277 1.94084e-05 -64.2328 -11.1369 4.38744 -51.6433 -0 -0 34.991 -3.13216e-06 8.48678 5.85012 0.871294 4.05024e-06 -40.973 
157.78 87.726 18.049 120.317 -83.1353 -88.8201 0 -0 0 -10.9217 2.06155 -4.12788 -0.777695 3.89225 -2.28714e-07 22.7191 65.444 -36.8303 -0 32.8738 -0 -6.61485 6.27091 -0.362807 -1.43458 8.87421 -5.85768e-06 6.03006 -72.1759 -35.6873 1.76677e-07 -29.5091 -6.70842e-07 7.94499 -4.0743 -0.2831 -4.95956 0.780013 -26.0203 -7.72649 1.21237 -5.44864 -0 -0 17.8914 1.13304e-05 -7.97804 21.3161 -2.9166 2.77518e-05 -62.6088 -11.1223 4.17405 -51.2066 -0 -0 32.2809 1.00236e-05 7.88197 6.22242 0.859702 1.05424e-08 -40.9785 
156.47 87.627 17.987 119.532 -83.4205 -88.0035 0 -0 0 -11.0119 2.08031 -3.90683 -1.40644 3.63687 -8.94588e-07 20.2029 65.9517 -39.5864 -0 32.5751 -0 -6.86335 6.46368 -0.387998 -1.38576 9.64352 3.24697e-06 12.9687 -73.6274 -42.8501 0 -29.1659 0 7.65003 -3.97925 -0.266103 -3.84303 1.219 -26.5856 -7.61543 1.71323 -5.57539 -0 -0 20.238 -3.68848e-05 -9.73326 20.2367 -3.39534 1.37453e-05 -60.9802 -11.0508 3.94445 -50.7336 -0 -0 29.9763 4.18577e-06 7.47094 6.50544 0.851198 -6.35983e-06 -40.6211 
155.15 87.435 17.932 118.666 -83.6893 -87.168 0 -0 0 -11.0998 2.07854 -3.64757 -1.9696 3.34339 -2.33278e-07 17.3417 66.4774 -42.4993 -1.97106e-07 32.1088 -6.84936e-07 -7.15842 6.75819 -0.423202 -1.40116 10.372 -2.88328e-07 21.456 -74.76 -51.4346 0 -28.7136 0 7.24044 -3.86312 -0.244499 -2.663 1.62073 -27.1329 -7.52571 2.06239 -5.73848 -0 -0 22.9102 1.17871e-05 -11.1473 18.9374 -3.65899 4.45841e-05 -59.4161 -10.944 3.689 -50.2623 -0 -0 28.179 -2.77036e-07 7.29845 6.61401 0.845185 -4.6994e-07 -39.9164 
153.81 87.148 17.879 117.715 -83.968 -86.3008 0 -0 0 -11.1613 2.05159 -3.3616 -2.46124 3.00928 -1.45437e-07 14.0973 67.0233 -45.5931 -1.91848e-07 31.4572 -6.81221e-07 -7.49345 7.15924 -0.46941 -1.47307 11.04 8.89338e-06 31.2318 -75.4463 -61.239 0 -28.1817 0 6.74529 -3.72449 -0.219604 -1.4207 1.97798 -27.6496 -7.44042 2.30047 -5.92569 -0 -0 25.8374 8.66343e-05 -12.1824 17.5461 -3.72405 -6.14486e-05 -58.0797 -10.7961 3.43346 -49.8423 -0 -0 27.0052 7.66424e-06 7.35151 6.44487 0.829697 -1.8314e-06 -38.8957 
152.47 86.772 17.837 116.688 -84.225 -85.3895 0 -0 0 -11.2406 1.99136 -3.08132 -2.86667 2.63574 -2.82204e-06 10.4459 67.5842 -48.8801 -0 30.6115 -0 -7.85221 7.65891 -0.526391 -1.55893 11.6246 4.88888e-06 41.5254 -75.6114 -71.5699 0 -27.6054 0 6.20588 -3.56693 -0.193405 -0.102996 2.28155 -28.1163 -7.41219 2.40364 -6.17739 -0 -0 29.0177 4.43419e-05 -12.7595 16.1198 -3.59761 -2.90421e-05 -57.0253 -10.6325 3.15842 -49.5068 -0 -0 26.4989 -1.21574e-06 7.64344 5.92957 0.794294 -3.60161e-06 -37.5854 
151.13 86.31 17.804 115.612 -84.4599 -84.4446 0 -0 0 -11.3476 1.8899 -2.83006 -3.18363 2.22718 1.92251e-06 6.39704 68.1409 -52.3495 -0 29.5852 -0 -8.20633 8.23589 -0.591788 -1.61807 12.1097 4.21195e-06 51.3162 -75.2672 -81.5015 0 -27.0228 0 5.6707 -3.40063 -0.168497 1.29205 2.52285 -28.5118 -7.45265 2.40417 -6.5028 -0 -0 32.4058 0.000113415 -12.8895 14.716 -3.3272 -2.29894e-05 -56.3004 -10.4613 2.86857 -49.288 -0 -0 26.6904 -1.64169e-06 8.14354 5.01607 0.716789 -6.31182e-06 -36.0188 
149.79 85.768 17.782 114.57 -84.6437 -83.5342 0 -0 0 -11.496 1.73917 -2.63064 -3.41499 1.79181 -4.12738e-08 1.98673 68.6661 -55.9665 -1.68384e-07 28.4039 -6.65355e-07 -8.51908 8.85788 -0.661084 -1.604 12.4866 1.49927e-06 59.7758 -74.5327 -90.2962 1.54467e-07 -26.4787 -6.56543e-07 5.19262 -3.23766 -0.146799 2.76196 2.69227 -28.8194 -7.57834 2.32846 -6.91579 -0 -0 35.9663 5.66567e-06 -12.6046 13.3554 -2.95692 6.25865e-05 -55.8075 -10.2903 2.56212 -49.2023 -0 -0 27.5678 -2.18293e-06 8.81519 3.69058 0.571892 4.44959e-06 -34.2251 
148.46 85.155 17.765 113.567 -84.8157 -82.6513 0 -0 0 -11.6678 1.53369 -2.50085 -3.57979 1.34071 -1.88993e-07 -2.68257 69.134 -59.6425 -0 27.1147 -0 -8.74261 9.48707 -0.726891 -1.48043 12.7563 -6.36762e-06 66.5318 -73.5584 -97.6768 0 -26.0105 0 4.81215 -3.10146 -0.1304 4.29011 2.78199 -29.0156 -7.76642 2.22799 -7.41014 -0 -0 39.637 1.70351e-05 -12.0024 12.0688 -2.54521 -6.70361e-05 -55.5908 -10.1152 2.26372 -49.2624 -0 -0 29.0985 5.12497e-07 9.58525 1.96716 0.332104 1.20487e-06 -32.2501 
147.14 84.478 17.75 112.622 -84.9799 -81.82 0 -0 0 -11.838 1.26756 -2.43742 -3.70193 0.883697 -5.46251e-07 -7.49068 69.5299 -63.2716 -0 25.7788 -0 -8.83114 10.0827 -0.780591 -1.22534 12.9243 -6.03063e-06 71.613 -72.5061 -103.734 0 -25.6591 0 4.56236 -3.00976 -0.119901 5.84938 2.78402 -29.0866 -7.99254 2.13419 -7.96924 -0 -0 43.3635 2.29041e-06 -11.1834 10.8536 -2.13203 -3.47155e-06 -55.5205 -9.9251 1.98788 -49.4477 -0 -0 31.2031 -1.19213e-07 10.3907 -0.100301 -0.0183995 1.28613e-07 -30.1802 
145.82 83.749 17.732 111.686 -85.1642 -80.9969 0 -0 0 -11.9839 0.936348 -2.43656 -3.8077 0.428695 3.82702e-07 -12.2632 69.8452 -66.72 -0 24.4603 -0 -8.7338 10.6128 -0.812801 -0.836206 13.0011 -2.56534e-06 75.2378 -71.4927 -108.715 0 -25.4439 0 4.43714 -2.99719 -0.1161 7.40683 2.6911 -29.0257 -8.23077 2.06546 -8.57302 -0 -0 47.093 5.89323e-06 -10.2633 9.71276 -1.74968 1.14122e-05 -55.5359 -9.70891 1.74411 -49.7228 -0 -0 33.7634 8.3168e-08 11.1775 -2.42457 -0.478907 3.97037e-06 -28.1622 
144.5 82.984 17.71 110.734 -85.3392 -80.1553 0 -0 0 -12.0884 0.533994 -2.49698 -3.92968 -0.0191996 -1.37427e-08 -16.8275 70.0861 -69.8565 -0 23.2318 -0 -8.41623 11.0526 -0.815713 -0.305899 12.9962 7.81097e-07 77.5917 -70.6122 -112.813 0 -25.4193 0 4.45466 -3.05593 -0.1189 8.92403 2.49894 -28.826 -8.47041 2.01982 -9.22308 -0 -0 50.7958 1.11634e-05 -9.34542 8.63924 -1.41615 -1.56421e-05 -55.5512 -9.45828 1.52374 -50.0475 -0 -0 36.6339 -6.94434e-06 11.9166 -4.89796 -1.03229 -1.49084e-07 -26.3703 
143.17 82.201 17.686 109.586 -85.5367 -79.1233 0 -0 0 -12.1442 0.0572998 -2.60128 -4.08262 -0.458901 -4.47146e-07 -21.0444 70.2836 -72.5745 -0 22.153 -0 -7.85931 11.3883 -0.784903 0.348792 12.9213 1.3506e-06 78.8925 -69.9225 -116.205 0 -25.6061 0 4.56874 -3.1935 -0.127398 10.3634 2.20515 -28.4941 -8.70722 1.98084 -9.90111 -0 -0 54.4264 6.11683e-06 -8.52954 7.64004 -1.14229 8.51415e-06 -55.5332 -9.17902 1.32161 -50.3598 -0 -0 39.6469 -1.88562e-05 12.5821 -7.41284 -1.64937 6.94459e-06 -24.9921 
141.84 81.422 17.661 108.141 -85.7356 -77.8083 0 -0 0 -12.1451 -0.493411 -2.7317 -4.27749 -0.895396 -8.00563e-07 -24.8554 70.4738 -74.9098 -1.19449e-07 21.2523 -6.36661e-07 -7.0453 11.635 -0.718712 1.0734 12.7742 -7.61855e-06 79.3424 -69.4225 -118.978 1.51098e-07 -25.9999 -6.54478e-07 4.71139 -3.41668 -0.140599 11.6866 1.81119 -28.0425 -8.94185 1.9252 -10.5946 -0 -0 57.9478 4.31973e-06 -7.89381 6.71945 -0.929388 6.06086e-06 -55.4089 -8.8852 1.13742 -50.6028 -0 -0 42.6435 1.21207e-05 13.1536 -9.87592 -2.29534 6.89222e-06 -24.1749 
140.49 80.67 17.641 106.279 -85.9193 -76.0921 0 -0 0 -12.0975 -1.11371 -2.87343 -4.5177 -1.3324 -7.36872e-07 -28.2467 70.6922 -76.9018 -1.15017e-07 20.552 -6.34408e-07 -5.99533 11.8055 -0.620385 1.83516 12.5631 -3.50022e-06 79.052 -69.1203 -121.146 0 -26.6107 0 4.8396 -3.68249 -0.155704 12.8595 1.32491 -27.4902 -9.18972 1.82325 -11.3046 -0 -0 61.3331 2.821e-06 -7.4869 5.88613 -0.772111 1.60543e-07 -55.1634 -8.59874 0.967462 -50.7252 -0 -0 45.4798 4.78957e-05 13.6264 -12.2148 -2.93618 1.10959e-05 -23.9878 
139.13 79.966 17.628 103.991 -86.0806 -73.9703 0 -0 0 -12.0071 -1.79166 -3.01083 -4.79689 -1.77182 2.02744e-06 -31.2591 70.9692 -78.6399 -1.11869e-07 20.049 -6.32855e-07 -4.75335 11.9186 -0.496503 2.58986 12.2903 5.50979e-06 78.1449 -68.9835 -122.716 1.61229e-07 -27.4251 -6.60762e-07 4.90299 -3.9485 -0.169101 13.856 0.759481 -26.8593 -9.46518 1.65071 -12.0326 -0 -0 64.5529 2.88491e-06 -7.32849 5.14731 -0.661089 1.25822e-06 -54.7606 -8.34191 0.817548 -50.6854 -0 -0 48.04 -0.000131864 14.0011 -14.3826 -3.54406 -1.51818e-05 -24.4187 
137.8 79.326 17.55 86.7375 -86.3258 -56.7109 0 -0 0 -11.1907 -3.34623 -3.26801 -5.23474 -2.19731 1.27767e-06 -33.8442 71.363 -80.0604 -0 19.7326 -0 -3.39098 11.9845 -0.356098 3.14461 11.9794 -1.07033e-05 76.7175 -69.0444 -123.652 0 -28.4027 0 4.85595 -4.1784 -0.177201 14.5079 0.13061 -26.1067 -9.14453 0.636902 -12.757 -0 -0 67.438 -2.97439e-06 -7.53361 4.51856 -0.596909 2.65681e-06 -54.0863 -7.54408 -0.1164 -50.7891 -0 -0 50.3775 8.84764e-05 14.2803 -16.1792 -4.0569 -1.33412e-05 -25.5894 
136.4 78.78 17.56 83.8265 -86.376 -54.0176 0 -0 0 -11.0297 -4.07679 -3.36555 -5.54521 -2.63056 -7.15886e-06 -36.3471 71.7847 -81.5484 -0 19.5873 -0 -1.98901 12.0168 -0.209405 3.76515 11.6056 1.35358e-05 74.8708 -69.1444 -124.031 0 -29.5129 0 4.69357 -4.31703 -0.177006 15.1023 -0.53333 -25.3978 -9.51179 0.283296 -13.5395 -0 -0 70.2578 1.06875e-07 -7.80748 3.96183 -0.542803 1.88927e-06 -53.2643 -7.39824 -0.188924 -50.3283 -0 -0 52.1314 2.68665e-06 14.4851 -17.9304 -4.54727 1.49496e-05 -26.9232 
134.98 78.336 17.58 81.4772 -86.3809 -51.9077 0 -0 0 -10.8332 -4.79046 -3.4319 -5.8447 -3.04605 5.81908e-06 -38.7096 72.2641 -82.9763 -0 19.5977 -0 -0.632397 12.0184 -0.0666026 4.27442 11.1954 5.36421e-06 72.7022 -69.2952 -123.858 0 -30.6947 0 4.42365 -4.33578 -0.167501 15.4878 -1.20872 -24.6833 -9.92587 -0.145394 -14.366 -0 -0 72.8434 -9.3724e-07 -8.22228 3.4817 -0.502805 -6.85682e-06 -52.215 -7.31148 -0.195929 -49.6151 -0 -0 53.4054 0.000169154 14.632 -19.4601 -4.97117 3.04596e-05 -28.4271 
